<svg width="36" height="30" viewBox="0 0 36 30" fill="none" xmlns="http://www.w3.org/2000/svg">
<path d="M7.34604 5.81698C7.14794 5.71015 6.9255 5.65655 6.70049 5.66144C6.47547 5.66633 6.25557 5.72953 6.0623 5.84486C5.86903 5.9602 5.70899 6.12372 5.59785 6.31943C5.48671 6.51515 5.42826 6.73635 5.42822 6.96142V23.4345C5.42822 23.7794 5.56524 24.1102 5.80913 24.3541C6.05302 24.598 6.38381 24.735 6.72873 24.735C7.07365 24.735 7.40443 24.598 7.64833 24.3541C7.89222 24.1102 8.02924 23.7794 8.02924 23.4345V9.13934L17.3825 14.1749C17.7674 14.383 18.2321 14.383 18.6171 14.1749L27.9703 9.13934V23.4345C27.9703 23.7794 28.1074 24.1102 28.3512 24.3541C28.5951 24.598 28.9259 24.735 29.2708 24.735C29.6158 24.735 29.9466 24.598 30.1904 24.3541C30.4343 24.1102 30.5714 23.7794 30.5714 23.4345V6.96142C30.5713 6.73635 30.5129 6.51515 30.4017 6.31943C30.2906 6.12372 30.1306 5.9602 29.9373 5.84486C29.744 5.72953 29.5241 5.66633 29.2991 5.66144C29.0741 5.65655 28.8516 5.71015 28.6535 5.81698L17.9998 11.5531L7.34604 5.81698Z" fill="#EEEEEE"/>
<path fill-rule="evenodd" clip-rule="evenodd" d="M27.2076 0.410766C21.0814 -0.136922 14.9186 -0.136922 8.79239 0.410766L6.16016 0.644858C4.78906 0.76729 3.49925 1.34831 2.49905 2.29409C1.49884 3.23987 0.846629 4.49518 0.647746 5.85729C-0.215915 11.7643 -0.215915 17.7655 0.647746 23.6725C0.847062 25.0346 1.49968 26.2897 2.5002 27.2351C3.50073 28.1806 4.79074 28.7612 6.16189 28.8832L8.79065 29.119C14.9186 29.667 21.0813 29.667 27.2093 29.119L29.8398 28.8832C31.2106 28.7608 32.5002 28.1801 33.5004 27.2346C34.5006 26.2892 35.153 25.0343 35.3522 23.6725C36.2159 17.7655 36.2159 11.7643 35.3522 5.85729C35.1532 4.49491 34.5008 3.23939 33.5002 2.29358C32.4997 1.34778 31.2095 0.76692 29.8381 0.644858L27.2076 0.410766ZM9.02474 3.00138C14.9975 2.46736 21.0059 2.46736 26.9787 3.00138L29.6092 3.2372C30.3977 3.30724 31.1397 3.64106 31.7151 4.18475C32.2906 4.72844 32.666 5.45024 32.7807 6.23357C33.6079 11.891 33.6079 17.6388 32.7807 23.2962C32.666 24.0795 32.2906 24.8014 31.7151 25.345C31.1397 25.8887 30.3977 26.2225 29.6092 26.2926L26.9787 26.5284C21.0067 27.0625 14.9967 27.0625 9.02474 26.5284L6.39425 26.2926C5.60568 26.2225 4.86374 25.8887 4.28827 25.345C3.71281 24.8014 3.33742 24.0795 3.22275 23.2962C2.39557 17.6387 2.39557 11.891 3.22275 6.23357C3.33742 5.45024 3.71281 4.72844 4.28827 4.18475C4.86374 3.64106 5.60568 3.30724 6.39425 3.2372L9.02474 3.00138Z" fill="#EEEEEE"/>
</svg>
