<svg width="33" height="33" viewBox="0 0 33 33" fill="none" xmlns="http://www.w3.org/2000/svg">
<path d="M1.46838 16.765C1.46838 9.80524 1.46838 6.32381 3.63029 4.16191C5.7922 2 9.27207 2 16.2334 2C23.1931 2 26.6746 2 28.8365 4.16191C30.9984 6.32381 30.9984 9.80369 30.9984 16.765C30.9984 23.7247 30.9984 27.2062 28.8365 29.3681C26.6746 31.53 23.1947 31.53 16.2334 31.53C9.27362 31.53 5.7922 31.53 3.63029 29.3681C1.46838 27.2062 1.46838 23.7263 1.46838 16.765Z" stroke="#EEEEEE" stroke-width="2.33131" stroke-linecap="round" stroke-linejoin="round"/>
<path d="M24.7939 8.21631H24.7784M23.2273 16.7645C23.2273 18.6194 22.4904 20.3983 21.1788 21.7099C19.8672 23.0215 18.0882 23.7584 16.2333 23.7584C14.3784 23.7584 12.5995 23.0215 11.2879 21.7099C9.97624 20.3983 9.23938 18.6194 9.23938 16.7645C9.23938 14.9096 9.97624 13.1306 11.2879 11.819C12.5995 10.5074 14.3784 9.77052 16.2333 9.77052C18.0882 9.77052 19.8672 10.5074 21.1788 11.819C22.4904 13.1306 23.2273 14.9096 23.2273 16.7645Z" stroke="#EEEEEE" stroke-width="2.33131" stroke-linecap="round" stroke-linejoin="round"/>
</svg>
