<svg width="33" height="33" viewBox="0 0 33 33" fill="none" xmlns="http://www.w3.org/2000/svg">
<path d="M8.02914 24.9678V13.4839M30.9969 10.2028V23.3272C30.9969 25.5027 30.1327 27.5891 28.5944 29.1274C27.056 30.6658 24.9696 31.53 22.7941 31.53H9.66969C7.49418 31.53 5.40777 30.6658 3.86946 29.1274C2.33114 27.5891 1.46692 25.5027 1.46692 23.3272V10.2028C1.46692 8.02726 2.33114 5.94086 3.86946 4.40254C5.40777 2.86422 7.49418 2 9.66969 2H22.7941C24.9696 2 27.056 2.86422 28.5944 4.40254C30.1327 5.94086 30.9969 8.02726 30.9969 10.2028Z" stroke="#EEEEEE" stroke-width="2.46083" stroke-linecap="round" stroke-linejoin="round"/>
<path d="M14.5913 24.9682V19.6364M14.5913 19.6364V13.4843M14.5913 19.6364C14.5913 13.4843 24.4346 13.4843 24.4346 19.6364V24.9682M8.02905 8.57908L8.04546 8.56104" stroke="#EEEEEE" stroke-width="2.46083" stroke-linecap="round" stroke-linejoin="round"/>
</svg>
