<svg width="75" height="72" viewBox="0 0 75 72" fill="none" xmlns="http://www.w3.org/2000/svg">
<path d="M59.2148 26.4809C63.657 30.1526 67.7222 33.4064 73.8527 27.8824L74.0248 27.6939L73.4511 27.1775C73.4429 27.2513 73.3691 27.2431 73.2872 27.3005C70.5743 29.6445 67.4599 27.7513 63.5505 25.3908C59.7804 23.0468 53.7236 19.6455 46.0031 21.1946C44.8966 21.424 43.823 21.7355 42.7657 22.0961L34.5043 0H25.8822V0.786798C26.8083 0.786798 27.5951 1.07365 27.2345 2.42597L21.9154 17.8178C21.7924 16.7442 21.5548 15.8098 21.2679 14.9247C20.9155 13.8428 20.4729 12.8511 19.9648 11.8922C19.4484 10.9333 18.8747 10.0154 18.1617 9.12201C17.4486 8.22866 16.6536 7.3517 15.5062 6.51572C15.0554 7.86804 15.0554 9.13841 15.2357 10.3596C15.4243 11.5808 15.834 12.7364 16.4078 13.8019C16.9815 14.8673 17.7191 15.8426 18.6288 16.6786C19.4812 17.4408 20.4565 18.0883 21.6859 18.4817L21.2761 19.6783C20.7598 19.7849 20.3172 19.8094 19.8418 19.8504C19.2845 19.8996 18.6616 20.0389 18.1043 20.2192C16.9651 20.5799 15.9324 21.1454 14.9981 21.842C14.0719 22.5469 13.2442 23.391 12.5885 24.3827C11.941 25.3826 11.4165 26.4973 11.2607 27.8824C12.6377 27.6529 13.7031 27.2267 14.703 26.7432C15.6947 26.2596 16.5881 25.6941 17.4322 25.0548C18.2682 24.4155 19.055 23.7107 19.7927 22.8829C20.0057 22.637 20.2107 22.3911 20.4237 22.1289L19.0222 26.1776C16.3094 33.808 10.8264 50.0604 25.079 50.0604H25.4396C28.7999 74.0744 65.3781 82.844 72.5495 53.224L71.7955 52.97C62.0424 89.5236 17.3995 61.0183 35.0452 31.1525C35.9549 29.5871 36.9876 28.1856 38.1186 26.9644L45.4704 46.7083C45.8965 47.9869 45.4704 49.2736 44.3967 49.2736V50.0604H54.3055V49.2736C53.0925 49.2736 52.3057 47.6345 51.814 46.3477L43.1263 23.096C44.1098 22.5961 45.1261 22.2108 46.167 21.9568C53.3958 20.2684 55.5185 23.5222 59.1903 26.5055M25.497 42.4219C25.1446 44.8315 25.12 47.1345 25.3659 49.3146H25.0954C11.9738 49.3146 17.0388 34.1277 19.5304 26.9317L28.5131 1.12283L37.2745 24.6532C31.1112 28.4479 26.6116 34.6768 25.4888 42.4219" fill="#EEEEEE"/>
<path d="M19.08 18.7357C17.6703 17.4572 16.1951 16.5392 14.6952 15.6869C13.1954 14.8591 11.6627 14.1542 10.1055 13.5313C8.54011 12.9167 6.9501 12.3839 5.28634 11.9659C3.61438 11.5643 1.90964 11.2283 0 11.2037C1.14742 12.7282 2.53253 13.8592 3.9832 14.8591C5.44206 15.8426 7.00747 16.6458 8.62206 17.2769C10.2448 17.9161 11.925 18.3915 13.6707 18.6702C15.4164 18.9324 17.2032 19.0472 19.08 18.7193" fill="#EEEEEE"/>
</svg>
