<svg width="146" height="30" viewBox="0 0 146 30" fill="none" xmlns="http://www.w3.org/2000/svg">
<path d="M25.6898 25.42C25.6198 25.71 25.5898 25.9199 25.5898 26.0699C25.5898 26.2099 25.6698 26.3099 25.7898 26.3599C25.9098 26.4099 26.1198 26.4399 26.3898 26.4599L26.3398 26.7C26.1598 26.68 25.9298 26.67 25.6498 26.67C25.3698 26.67 25.0998 26.67 24.8198 26.67C24.5098 26.67 24.2198 26.67 23.9598 26.67C23.6998 26.67 23.4798 26.68 23.2998 26.7L23.3598 26.4599C23.6198 26.4399 23.8298 26.4099 23.9798 26.3599C24.1298 26.3099 24.2498 26.2199 24.3298 26.0699C24.4198 25.9299 24.4998 25.71 24.5698 25.42L26.1498 19.4699C26.2298 19.1699 26.2598 18.9599 26.2498 18.8199C26.2298 18.6799 26.1598 18.5799 26.0398 18.5299C25.9198 18.4799 25.7198 18.4499 25.4498 18.4399L25.5098 18.2C25.6698 18.2 25.8898 18.2199 26.1598 18.2199C26.4298 18.2199 26.7198 18.2299 27.0398 18.2299C27.3198 18.2299 27.5998 18.2299 27.8698 18.2199C28.1398 18.2099 28.3798 18.2 28.5698 18.2L28.5098 18.4399C28.2398 18.4399 28.0298 18.4799 27.8698 18.5299C27.7098 18.5799 27.5998 18.6799 27.5198 18.8199C27.4398 18.9599 27.3498 19.1799 27.2698 19.4699L25.6898 25.42Z" fill="#756770" stroke="#756770" stroke-width="0.2"/>
<path d="M30.3898 26.6899H29.3498L30.7898 21.5399C30.8098 21.4699 30.8398 21.3699 30.8598 21.2599C30.8798 21.1499 30.8798 21.0399 30.8598 20.9399C30.8398 20.8399 30.7598 20.7999 30.6298 20.7999C30.4498 20.7999 30.2898 20.8899 30.1498 21.0799C30.0098 21.2599 29.8498 21.5799 29.6898 22.0299L29.5298 22.4699H29.2998L29.5998 21.5899C29.7198 21.2499 29.8598 20.9999 30.0298 20.8199C30.1998 20.6399 30.3698 20.52 30.5498 20.45C30.7298 20.38 30.8998 20.3499 31.0598 20.3499C31.2998 20.3499 31.4698 20.3999 31.5798 20.5099C31.6798 20.6199 31.7398 20.7599 31.7498 20.9299C31.7598 21.0999 31.7498 21.2799 31.7098 21.4799C31.6698 21.6799 31.6298 21.8599 31.5798 22.0299L30.3998 26.6899H30.3898ZM33.7798 21.7499C33.8398 21.5799 33.8698 21.4199 33.8898 21.2699C33.9098 21.1199 33.8898 20.99 33.8498 20.89C33.8098 20.79 33.7098 20.7399 33.5598 20.7399C33.3398 20.7399 33.0898 20.8799 32.8198 21.1499C32.5498 21.4199 32.2798 21.8099 31.9998 22.2999C31.7198 22.7899 31.4598 23.3599 31.1998 24.0199C30.9398 24.6699 30.7198 25.3699 30.5198 26.1099L30.9198 24.1899C31.2898 23.2299 31.6298 22.4699 31.9498 21.9099C32.2698 21.3499 32.5898 20.9499 32.9198 20.7099C33.2398 20.4699 33.5898 20.3499 33.9598 20.3499C34.2198 20.3499 34.3998 20.4099 34.5198 20.5199C34.6398 20.6399 34.7098 20.7899 34.7298 20.9699C34.7498 21.1499 34.7498 21.3499 34.7098 21.5599C34.6698 21.7699 34.6298 21.9699 34.5798 22.1599L33.3598 26.6799H32.2798L33.7798 21.7399V21.7499ZM36.7798 21.7499C36.8598 21.4999 36.8998 21.2699 36.8998 21.0599C36.8998 20.8499 36.8098 20.7399 36.6398 20.7399C36.3998 20.7399 36.1498 20.8799 35.8798 21.1599C35.6198 21.4399 35.3398 21.8399 35.0598 22.3499C34.7798 22.8699 34.4998 23.4699 34.2298 24.1599C33.9498 24.8499 33.6898 25.61 33.4298 26.45L33.7098 24.9099C34.0198 24.0799 34.3098 23.3699 34.5698 22.7899C34.8298 22.2099 35.0898 21.7399 35.3498 21.3799C35.6098 21.0199 35.8698 20.7599 36.1398 20.5899C36.4098 20.4199 36.7098 20.3399 37.0298 20.3399C37.3498 20.3399 37.5898 20.4399 37.7098 20.6299C37.8298 20.8199 37.8798 21.0599 37.8598 21.3299C37.8398 21.6099 37.7898 21.8799 37.6998 22.1499L36.5398 25.6499C36.4598 25.8999 36.4298 26.0799 36.4598 26.2099C36.4898 26.3399 36.5798 26.3999 36.7398 26.3999C36.8898 26.3999 37.0398 26.3199 37.1898 26.1499C37.3398 25.9799 37.4998 25.6599 37.6598 25.1799L37.8198 24.7399H38.0498L37.7498 25.6199C37.6398 25.9599 37.4998 26.21 37.3398 26.39C37.1798 26.57 36.9998 26.6899 36.8198 26.7599C36.6398 26.8299 36.4698 26.8599 36.2998 26.8599C36.0998 26.8599 35.9398 26.8299 35.8298 26.7699C35.7098 26.7099 35.6198 26.6299 35.5598 26.5399C35.4598 26.3899 35.4298 26.1999 35.4598 25.9699C35.4898 25.7399 35.5598 25.4799 35.6498 25.1799L36.7898 21.7499H36.7798Z" fill="#756770" stroke="#756770" stroke-width="0.2"/>
<path d="M41.4497 26.4799C41.6397 26.4799 41.8597 26.3599 42.1097 26.1099C42.3597 25.8699 42.6097 25.5399 42.8697 25.1199C43.1297 24.6999 43.3597 24.23 43.5797 23.7C43.7997 23.17 43.9697 22.6199 44.0997 22.0599L43.8997 23.3599C43.5997 24.2099 43.2897 24.8899 42.9897 25.4099C42.6897 25.9299 42.3797 26.2999 42.0697 26.5299C41.7597 26.7599 41.4397 26.8699 41.1197 26.8699C40.7397 26.8699 40.4597 26.7299 40.2697 26.4599C40.0797 26.1899 39.9897 25.84 39.9897 25.42C39.9897 25.04 40.0497 24.62 40.1797 24.17C40.3097 23.72 40.4897 23.2699 40.7097 22.8199C40.9297 22.3699 41.1997 21.9599 41.4997 21.5999C41.7997 21.2299 42.1197 20.9399 42.4697 20.7099C42.8197 20.4799 43.1697 20.3699 43.5297 20.3699C43.8097 20.3699 44.0197 20.5099 44.1697 20.7799C44.3197 21.0599 44.3497 21.4399 44.2597 21.9399L44.1297 22.0099C44.1897 21.5899 44.1597 21.2399 44.0497 20.9799C43.9397 20.7199 43.7497 20.5899 43.4997 20.5899C43.2897 20.5899 43.0697 20.6899 42.8497 20.8999C42.6297 21.1099 42.3997 21.3799 42.1897 21.7299C41.9797 22.0799 41.7897 22.4699 41.6097 22.8999C41.4397 23.3299 41.2997 23.7799 41.1997 24.2399C41.0997 24.6999 41.0497 25.1399 41.0497 25.5699C41.0497 25.9099 41.0897 26.1499 41.1597 26.2899C41.2297 26.4299 41.3397 26.4899 41.4697 26.4899L41.4497 26.4799ZM44.4697 20.5199C44.6597 20.5199 44.8497 20.4999 45.0497 20.4699C45.2397 20.4499 45.4197 20.4099 45.5797 20.3499L44.0797 25.6499C44.0597 25.7199 44.0397 25.8199 44.0097 25.9299C43.9797 26.0499 43.9797 26.1499 44.0097 26.2499C44.0397 26.3499 44.1197 26.39 44.2597 26.39C44.4197 26.39 44.5797 26.2999 44.7297 26.1299C44.8797 25.9599 45.0297 25.63 45.1897 25.17L45.3297 24.7299H45.5597L45.2597 25.6099C45.1497 25.9299 45.0097 26.1799 44.8597 26.3599C44.6997 26.5399 44.5397 26.6699 44.3697 26.7399C44.1997 26.8199 44.0397 26.8499 43.8797 26.8499C43.5697 26.8499 43.3497 26.7499 43.2197 26.5399C43.1197 26.3599 43.0897 26.1399 43.1397 25.8999C43.1897 25.6599 43.2397 25.4099 43.3097 25.1599L44.4897 20.5199H44.4697Z" fill="#756770" stroke="#756770" stroke-width="0.2"/>
<path d="M49.9497 23.9899H50.2497C49.9597 24.1599 49.6997 24.3099 49.4497 24.4399C49.2097 24.5699 49.0097 24.6899 48.8597 24.8099C48.7097 24.9299 48.6297 25.0299 48.6297 25.1299C48.6297 25.2099 48.6897 25.2799 48.7997 25.3499C48.9097 25.4199 49.0997 25.4799 49.3497 25.5499L50.2297 25.7799C50.4897 25.8399 50.7197 25.9199 50.9197 25.9999C51.1197 26.0799 51.2897 26.1899 51.4097 26.3199C51.5297 26.4499 51.5897 26.6199 51.5897 26.8199C51.5897 27.0199 51.5197 27.2499 51.3897 27.4999C51.2597 27.7499 51.0497 27.9899 50.7797 28.2299C50.4997 28.4599 50.1497 28.6499 49.7097 28.8099C49.2697 28.9599 48.7397 29.0399 48.1097 29.0399C47.6897 29.0399 47.3397 28.9999 47.0597 28.9299C46.7797 28.8499 46.5597 28.7499 46.4197 28.6099C46.2797 28.4699 46.2097 28.32 46.2097 28.14C46.2097 28.01 46.2497 27.8799 46.3197 27.7399C46.3897 27.5999 46.4997 27.4599 46.6397 27.3299C46.7797 27.1999 46.9597 27.0699 47.1697 26.9599C47.3797 26.8399 47.6297 26.75 47.9197 26.67L47.9997 26.8499C47.6997 26.9999 47.4997 27.1699 47.3897 27.3699C47.2797 27.5599 47.2197 27.75 47.2197 27.95C47.2197 28.27 47.3297 28.5 47.5597 28.64C47.7797 28.78 48.0597 28.8499 48.3897 28.8499C48.6497 28.8499 48.9297 28.8099 49.2097 28.7199C49.4897 28.6399 49.7497 28.5199 49.9897 28.3799C50.2297 28.2399 50.4197 28.08 50.5697 27.89C50.7097 27.71 50.7897 27.5099 50.7897 27.3099C50.7897 27.1899 50.7497 27.1099 50.6797 27.0699C50.6097 27.0299 50.4797 26.99 50.2997 26.95L48.4597 26.4799C48.2697 26.4299 48.1097 26.3499 47.9897 26.2299C47.8697 26.1099 47.8097 25.9599 47.8097 25.7599C47.8097 25.5999 47.8697 25.4399 47.9797 25.2699C48.0897 25.0999 48.2997 24.9199 48.6197 24.7099C48.9397 24.4999 49.3797 24.2699 49.9797 23.9999L49.9497 23.9899ZM50.6097 20.3599C51.0797 20.3599 51.4597 20.4699 51.7597 20.6799C52.0597 20.8899 52.1997 21.2299 52.1997 21.7099C52.1997 22.0899 52.0897 22.4699 51.8797 22.8499C51.6597 23.2299 51.3597 23.5399 50.9697 23.7799C50.5797 24.0199 50.1097 24.1499 49.5797 24.1499C49.1397 24.1499 48.7697 24.0399 48.4697 23.8299C48.1697 23.6199 48.0197 23.2899 48.0197 22.8399C48.0197 22.6199 48.0697 22.3699 48.1597 22.0899C48.2497 21.8099 48.3997 21.5299 48.5997 21.2699C48.7997 21.0099 49.0697 20.7899 49.3997 20.6199C49.7297 20.4499 50.1397 20.3599 50.6297 20.3599H50.6097ZM50.5597 20.5699C50.2997 20.5699 50.0897 20.6399 49.9097 20.7899C49.7297 20.9399 49.5897 21.1299 49.4697 21.3499C49.3497 21.5799 49.2697 21.8199 49.2097 22.0599C49.1497 22.2999 49.1097 22.5299 49.0797 22.7399C49.0497 22.9499 49.0397 23.0899 49.0397 23.1899C49.0397 23.4499 49.0997 23.6299 49.2097 23.7399C49.3297 23.8499 49.4797 23.9099 49.6697 23.9099C49.9697 23.9099 50.2197 23.8199 50.4097 23.6299C50.5997 23.4499 50.7397 23.22 50.8497 22.95C50.9497 22.68 51.0197 22.4099 51.0597 22.1299C51.0997 21.8599 51.1097 21.63 51.1097 21.45C51.1097 21.18 51.0697 20.9599 50.9997 20.7999C50.9297 20.6399 50.7797 20.5599 50.5397 20.5599L50.5597 20.5699ZM51.4597 20.9799L51.2397 20.8999C51.3497 20.6299 51.5397 20.3899 51.8197 20.1799C52.0997 19.9699 52.3797 19.8699 52.6697 19.8699C52.8797 19.8699 53.0497 19.9299 53.1697 20.0399C53.2997 20.1599 53.3597 20.3399 53.3597 20.5899C53.3597 20.8099 53.2997 20.9799 53.1897 21.0799C53.0797 21.1799 52.9597 21.2399 52.8297 21.2399C52.6997 21.2399 52.5797 21.1999 52.4597 21.1099C52.3397 21.0299 52.2697 20.8899 52.2497 20.7099C52.2297 20.5299 52.2797 20.2899 52.4097 19.9999L52.5697 20.0399C52.2297 20.1699 51.9897 20.2999 51.8497 20.4399C51.7097 20.5799 51.5697 20.7599 51.4497 20.9899L51.4597 20.9799Z" fill="#756770" stroke="#756770" stroke-width="0.2"/>
<path d="M54.9699 23.9699C55.4199 23.8199 55.8199 23.6699 56.1899 23.5199C56.5499 23.3699 56.8399 23.2099 57.0599 23.0499C57.3499 22.8199 57.5799 22.5399 57.7399 22.2099C57.9099 21.8799 57.9899 21.5199 57.9899 21.1299C57.9899 20.8999 57.9699 20.7499 57.9399 20.6899C57.9099 20.6299 57.8599 20.5899 57.7999 20.5899C57.5999 20.5899 57.3799 20.6799 57.1499 20.8499C56.9199 21.0199 56.6899 21.2699 56.4699 21.5799C56.2499 21.8899 56.0399 22.2399 55.8499 22.6299C55.6599 23.0199 55.5099 23.4399 55.3999 23.8799C55.2899 24.3199 55.2299 24.7699 55.2299 25.2099C55.2299 25.6199 55.3099 25.9099 55.4599 26.0899C55.6099 26.2699 55.8099 26.3599 56.0599 26.3599C56.3499 26.3599 56.6499 26.2699 56.9699 26.0999C57.2899 25.9199 57.5999 25.6099 57.9099 25.1599L58.0999 25.2599C57.9499 25.5199 57.7499 25.7799 57.4999 26.0299C57.2499 26.2799 56.9699 26.48 56.6699 26.64C56.3599 26.8 56.0399 26.8699 55.6899 26.8699C55.3699 26.8699 55.0899 26.8099 54.8499 26.6799C54.6099 26.5499 54.4299 26.3599 54.2999 26.1099C54.1699 25.8599 54.1099 25.5499 54.1099 25.1799C54.1099 24.8399 54.1699 24.4499 54.2999 24.0199C54.4299 23.5899 54.6099 23.1599 54.8499 22.7399C55.0899 22.3199 55.3699 21.9199 55.6999 21.5599C56.0299 21.1999 56.3899 20.91 56.7899 20.7C57.1899 20.49 57.6199 20.3799 58.0699 20.3799C58.3199 20.3799 58.5299 20.4499 58.6999 20.5799C58.8699 20.7099 58.9599 20.91 58.9599 21.17C58.9599 21.49 58.8699 21.7899 58.6799 22.0599C58.4899 22.3399 58.2399 22.5899 57.9399 22.8199C57.6299 23.0499 57.2999 23.2499 56.9399 23.4299C56.5799 23.6099 56.2299 23.76 55.8799 23.89C55.5399 24.02 55.2299 24.12 54.9699 24.2V23.9999V23.9699Z" fill="#756770" stroke="#756770" stroke-width="0.2"/>
<path d="M61.7997 26.6899H60.7597L62.1997 21.5399C62.2297 21.4399 62.2597 21.3399 62.2797 21.2199C62.2997 21.0999 62.2897 21 62.2597 20.92C62.2297 20.84 62.1497 20.7899 62.0197 20.7899C61.8397 20.7899 61.6897 20.8799 61.5497 21.0499C61.4097 21.2199 61.2597 21.5399 61.0897 22.0199L60.9297 22.4599H60.6997L60.9997 21.5799C61.1797 21.0799 61.3897 20.7399 61.6497 20.5799C61.9097 20.4199 62.1697 20.3399 62.4197 20.3399C62.6597 20.3399 62.8297 20.3899 62.9397 20.4999C63.0497 20.5999 63.1097 20.7399 63.1197 20.8999C63.1297 21.0599 63.1197 21.2399 63.0797 21.4399C63.0397 21.6399 62.9997 21.8299 62.9497 22.0199L61.7697 26.6799L61.7997 26.6899ZM62.3497 24.1899C62.6297 23.4699 62.8997 22.8699 63.1697 22.3799C63.4297 21.8899 63.6897 21.5 63.9497 21.2C64.2097 20.9 64.4697 20.6799 64.7397 20.5499C65.0097 20.4199 65.2897 20.3499 65.5697 20.3499C65.9497 20.3499 66.1997 20.4399 66.3397 20.6199C66.4797 20.7999 66.5397 21.0299 66.5297 21.2999C66.5097 21.5799 66.4597 21.8599 66.3597 22.1599L65.1997 25.6599C65.1297 25.8799 65.0997 26.0499 65.1097 26.1899C65.1197 26.3299 65.2197 26.3999 65.3897 26.3999C65.5397 26.3999 65.6897 26.3199 65.8397 26.1499C65.9897 25.9799 66.1497 25.6599 66.3097 25.1799L66.4697 24.7399H66.6997L66.3997 25.6199C66.2897 25.9599 66.1497 26.21 65.9897 26.39C65.8297 26.57 65.6497 26.6899 65.4697 26.7599C65.2897 26.8299 65.1197 26.8599 64.9497 26.8599C64.7597 26.8599 64.5997 26.8299 64.4797 26.7599C64.3597 26.6999 64.2597 26.6099 64.1997 26.5099C64.1097 26.3699 64.0797 26.18 64.1197 25.95C64.1497 25.72 64.2197 25.4599 64.3097 25.1799L65.4497 21.7499C65.4897 21.6399 65.5197 21.4999 65.5497 21.3499C65.5797 21.1899 65.5697 21.0499 65.5297 20.9299C65.4897 20.8099 65.3697 20.7399 65.1797 20.7399C64.9897 20.7399 64.7797 20.8199 64.5697 20.9899C64.3497 21.1599 64.1297 21.4 63.8997 21.7C63.6697 22.01 63.4397 22.3799 63.2197 22.7999C62.9997 23.2299 62.7797 23.6999 62.5797 24.2199C62.3797 24.7399 62.1897 25.2899 62.0197 25.8699L62.3697 24.1899H62.3497Z" fill="#756770" stroke="#756770" stroke-width="0.2"/>
<path d="M77.8297 19.9899C78.0497 19.9899 78.2197 19.9299 78.3597 19.8199C78.4997 19.7099 78.5697 19.5399 78.5697 19.3299C78.5697 19.0599 78.4597 18.8399 78.2297 18.6899C77.9997 18.5399 77.7297 18.4599 77.3997 18.4599C77.0697 18.4599 76.7797 18.5399 76.5197 18.6899C76.2597 18.8399 76.0597 19.0599 75.9197 19.3299C75.7797 19.5999 75.6997 19.8999 75.6997 20.2499C75.6997 20.4099 75.7197 20.5799 75.7597 20.7499C75.7997 20.9199 75.8697 21.0899 75.9597 21.2499C76.0997 21.2299 76.2497 21.21 76.3897 21.2C76.5297 21.19 76.6397 21.1799 76.7097 21.1799C76.9997 21.1799 77.1397 21.2599 77.1397 21.4299C77.1397 21.5199 77.0997 21.5799 77.0197 21.6199C76.9397 21.6599 76.8597 21.6799 76.7697 21.6799C76.6197 21.6799 76.4597 21.6499 76.3097 21.5799C76.1497 21.5099 76.0297 21.46 75.9397 21.42C75.5797 21.52 75.2597 21.6899 74.9897 21.9299C74.7097 22.1699 74.4997 22.4399 74.3397 22.7599C74.1797 23.0799 74.1097 23.4199 74.1097 23.7899C74.1097 24.2699 74.2397 24.6699 74.4997 24.9999C74.7597 25.3199 75.1197 25.5699 75.5697 25.7399C76.0197 25.9099 76.5397 25.9899 77.1197 25.9899C77.5797 25.9899 78.0197 25.9399 78.4197 25.8299C78.8197 25.7299 79.1697 25.5799 79.4697 25.3799C79.7697 25.1799 79.9997 24.95 80.1697 24.67C80.3397 24.39 80.4197 24.0899 80.4197 23.7499C80.4197 23.4499 80.3497 23.1499 80.1997 22.8399C80.0497 22.5299 79.8097 22.2799 79.4697 22.0799L79.6397 21.9999C79.9697 22.2399 80.2197 22.5199 80.3997 22.8299C80.5797 23.1499 80.6597 23.4999 80.6597 23.8999C80.6597 24.2999 80.5697 24.6699 80.3997 25.0199C80.2197 25.3799 79.9597 25.6899 79.6197 25.9699C79.2797 26.2499 78.8597 26.4599 78.3697 26.6199C77.8797 26.7799 77.3097 26.8599 76.6697 26.8599C75.9697 26.8599 75.3597 26.7599 74.8397 26.5499C74.3197 26.3399 73.9197 26.0599 73.6397 25.6799C73.3597 25.2999 73.2097 24.8499 73.2097 24.3199C73.2097 23.8399 73.3197 23.3999 73.5497 22.9899C73.7797 22.5899 74.0897 22.24 74.4697 21.95C74.8597 21.66 75.2997 21.4399 75.7797 21.3099C75.5097 21.1599 75.2997 20.9599 75.1597 20.7199C75.0197 20.4799 74.9397 20.2299 74.9397 19.9599C74.9397 19.5899 75.0597 19.2799 75.3097 19.0299C75.5597 18.7799 75.8597 18.59 76.2297 18.45C76.5897 18.32 76.9597 18.2499 77.3197 18.2499C77.7697 18.2499 78.1297 18.3499 78.3897 18.5399C78.6597 18.7299 78.7897 18.9799 78.7897 19.2999C78.7897 19.6199 78.6797 19.8299 78.4597 19.9799C78.2397 20.1299 78.0097 20.2 77.7697 20.2L77.7897 19.9799L77.8297 19.9899ZM79.2597 24.1199C79.1897 24.2399 79.0897 24.3599 78.9697 24.4799C78.8497 24.5999 78.6997 24.6999 78.5097 24.7899C78.3197 24.8799 78.0997 24.92 77.8297 24.92C77.6097 24.92 77.4097 24.8799 77.2097 24.8099C77.0097 24.7399 76.8497 24.6199 76.7197 24.4399C76.5897 24.2699 76.5297 24.0299 76.5297 23.7399C76.5297 23.2399 76.7097 22.8499 77.0697 22.5499C77.4297 22.2499 77.9097 21.9899 78.5197 21.7599C78.6597 21.6999 78.8597 21.6299 79.1197 21.5399C79.3797 21.4499 79.6497 21.3499 79.9497 21.2499C80.2497 21.1399 80.5497 21.0299 80.8397 20.9099C81.1397 20.7899 81.3997 20.6799 81.6197 20.5699C81.8597 20.4599 82.0697 20.3399 82.2597 20.2099C82.4397 20.0799 82.5897 19.9399 82.6997 19.7799C82.8097 19.6199 82.8597 19.4399 82.8597 19.2399C82.8597 18.9399 82.7497 18.6999 82.5197 18.4999C82.2897 18.2999 82.0097 18.2099 81.6697 18.2099C81.4597 18.2099 81.3297 18.2499 81.2897 18.3199C81.3797 18.3699 81.4397 18.4299 81.4797 18.5199C81.5197 18.6099 81.5397 18.6899 81.5397 18.7799C81.5397 18.8999 81.4997 19.0099 81.4297 19.1199C81.3497 19.2199 81.2597 19.3099 81.1397 19.3699C81.0197 19.4299 80.8897 19.4699 80.7597 19.4699C80.6097 19.4699 80.4797 19.4299 80.3797 19.3399C80.2797 19.2499 80.2197 19.1299 80.2197 18.9699C80.2197 18.7899 80.2797 18.6399 80.3997 18.5099C80.5197 18.3799 80.6597 18.2799 80.8197 18.2099C80.9597 18.1499 81.0997 18.0999 81.2497 18.0799C81.3997 18.0599 81.5497 18.0399 81.6997 18.0399C81.9997 18.0399 82.2597 18.0899 82.4797 18.1799C82.6997 18.2799 82.8797 18.4199 83.0097 18.6199C83.1397 18.8199 83.1997 19.0799 83.1997 19.3999C83.1997 19.6599 83.1497 19.91 83.0497 20.14C82.9497 20.37 82.7897 20.5799 82.5797 20.7799C82.3697 20.9799 82.0797 21.1599 81.7397 21.3399C81.5197 21.4399 81.2597 21.5599 80.9497 21.6799C80.6397 21.7999 80.3097 21.9299 79.9697 22.0599C79.6297 22.1899 79.2897 22.3099 78.9697 22.4299C78.6497 22.5499 78.3697 22.6499 78.1297 22.7499C77.9697 22.8099 77.7897 22.8999 77.5897 22.9999C77.3897 23.0999 77.2197 23.2299 77.0797 23.3799C76.9397 23.5299 76.8697 23.7199 76.8697 23.9399C76.8697 24.1999 76.9697 24.3899 77.1797 24.5299C77.3797 24.6699 77.6197 24.7399 77.8897 24.7399C78.1397 24.7399 78.3497 24.6899 78.5097 24.5999C78.6797 24.4999 78.8097 24.3999 78.9097 24.2899C79.0097 24.1799 79.0797 24.0899 79.1097 24.0399L79.2697 24.1499L79.2597 24.1199Z" fill="#756770" stroke="#756770" stroke-width="0.2"/>
<path d="M94.8699 20.3599C94.9499 19.8899 94.9799 19.5099 94.9699 19.2399C94.9599 18.9699 94.8599 18.7699 94.6799 18.6499C94.4999 18.5299 94.1999 18.4799 93.7699 18.4799H92.8899C92.6199 18.4799 92.4099 18.4999 92.2599 18.5499C92.1099 18.5999 91.9899 18.6899 91.9099 18.8299C91.8299 18.9699 91.7399 19.1899 91.6599 19.4799L90.0599 25.4299C89.9799 25.7199 89.9499 25.9299 89.9599 26.0799C89.9699 26.2199 90.0399 26.3199 90.1699 26.3599C90.2999 26.3999 90.4999 26.4299 90.7699 26.4299H91.6499C92.1499 26.4299 92.5499 26.3599 92.8499 26.2299C93.1499 26.0899 93.3899 25.8699 93.5899 25.5599C93.7899 25.2499 93.9899 24.8299 94.1799 24.3099H94.4599C94.4199 24.4099 94.3799 24.5399 94.3299 24.6899C94.2799 24.8399 94.2399 25 94.1999 25.17C94.1599 25.32 94.1099 25.5399 94.0399 25.8199C93.9699 26.0999 93.9199 26.4 93.8699 26.7C93.4599 26.68 92.9999 26.67 92.4899 26.67C91.9799 26.67 91.5199 26.67 91.1199 26.67H90.4399C90.1599 26.67 89.8699 26.67 89.5499 26.67C89.2299 26.67 88.9099 26.6699 88.5799 26.6799C88.2499 26.6899 87.9399 26.68 87.6599 26.7L87.7199 26.4599C87.9899 26.4399 88.1999 26.4099 88.3599 26.3599C88.5199 26.3099 88.6299 26.2199 88.7099 26.0699C88.7899 25.9199 88.8799 25.71 88.9599 25.42L90.5599 19.4699C90.6399 19.1699 90.6699 18.9599 90.6599 18.8199C90.6499 18.6799 90.5799 18.5799 90.4599 18.5299C90.3399 18.4799 90.1399 18.4499 89.8699 18.4399L89.9299 18.2C90.2299 18.2 90.5399 18.2099 90.8699 18.2199C91.1999 18.2199 91.5199 18.2199 91.8399 18.2299C92.1599 18.2299 92.4599 18.2299 92.7299 18.2299H93.4099C93.7599 18.2299 94.1599 18.2299 94.5999 18.2299C95.0399 18.2299 95.4399 18.22 95.7899 18.2C95.6899 18.48 95.5899 18.7499 95.5099 19.0199C95.4299 19.2799 95.3699 19.4799 95.3299 19.6199C95.2899 19.7599 95.2599 19.8999 95.2299 20.0299C95.1999 20.1599 95.1799 20.2699 95.1599 20.3599H94.8799H94.8699ZM90.4699 22.5399L90.5399 22.2999H92.6199L92.5499 22.5399H90.4699ZM91.6899 22.2999C91.9499 22.2999 92.1699 22.25 92.3399 22.14C92.5099 22.03 92.6499 21.8899 92.7499 21.7299C92.8499 21.5699 92.9499 21.3899 93.0199 21.2099C93.0899 21.0299 93.1599 20.8699 93.2199 20.7199H93.4999C93.3499 21.1799 93.2399 21.5199 93.1799 21.7599C93.1199 21.9999 93.0599 22.22 93.0099 22.42C92.9799 22.55 92.9399 22.6899 92.9099 22.8299C92.8699 22.9799 92.8299 23.1499 92.7899 23.3599C92.7499 23.5599 92.6899 23.8199 92.6299 24.1199H92.3499C92.3699 23.9299 92.3999 23.7399 92.4199 23.5499C92.4399 23.3599 92.4399 23.1899 92.4199 23.0399C92.3899 22.8899 92.3199 22.77 92.1999 22.67C92.0799 22.57 91.8899 22.5299 91.6199 22.5299L91.6899 22.2899V22.2999Z" fill="#756770" stroke="#756770" stroke-width="0.2"/>
<path d="M97.3199 26.5099C97.3799 26.5399 97.4499 26.5699 97.5299 26.5899C97.6099 26.6099 97.7199 26.6199 97.8699 26.6199C98.2199 26.6199 98.5099 26.5099 98.7399 26.2999C98.9699 26.0899 99.0799 25.7799 99.0799 25.3799C99.0799 25.1299 99.0299 24.89 98.9399 24.64C98.8499 24.4 98.6899 24.1099 98.4499 23.7899C98.2699 23.5299 98.0899 23.2699 97.9199 22.9999C97.7499 22.7299 97.6699 22.4099 97.6699 22.0499C97.6699 21.7099 97.7499 21.4099 97.9199 21.1599C98.0899 20.9099 98.3099 20.7099 98.5999 20.5699C98.8799 20.4299 99.1899 20.3499 99.5299 20.3499C99.7599 20.3499 99.9899 20.3799 100.21 20.4299C100.43 20.4799 100.62 20.5899 100.77 20.7399C100.92 20.8899 100.99 21.11 100.99 21.39C100.99 21.46 100.97 21.5499 100.94 21.6499C100.9 21.7499 100.85 21.8399 100.77 21.9099C100.69 21.9799 100.58 22.0199 100.45 22.0199C100.32 22.0199 100.21 21.9699 100.11 21.8799C100.01 21.7899 99.9699 21.6699 99.9699 21.5099C99.9699 21.3499 99.9999 21.2299 100.06 21.0999C100.12 20.9699 100.2 20.8399 100.31 20.7099C100.16 20.6099 99.9599 20.5699 99.7099 20.5699C99.4099 20.5699 99.1699 20.6699 98.9699 20.8699C98.7699 21.0699 98.6699 21.3499 98.6699 21.7099C98.6699 21.8899 98.6999 22.06 98.7499 22.2C98.8099 22.34 98.8899 22.49 98.9999 22.64C99.1099 22.79 99.2399 22.9799 99.3899 23.2199C99.5899 23.5199 99.7599 23.8199 99.8899 24.0999C100.03 24.3799 100.09 24.6799 100.09 24.9899C100.09 25.3599 99.9999 25.6799 99.8099 25.9699C99.6199 26.2499 99.3699 26.48 99.0599 26.64C98.7499 26.8 98.3999 26.8799 98.0299 26.8799C97.7599 26.8799 97.4999 26.8399 97.2499 26.7599C96.9999 26.6799 96.7999 26.5499 96.6399 26.3799C96.4799 26.2099 96.4099 25.9799 96.4099 25.6899C96.4099 25.5799 96.4399 25.4599 96.5099 25.3399C96.5799 25.2199 96.6999 25.1499 96.8799 25.1499C97.0699 25.1499 97.2099 25.2299 97.2899 25.3799C97.3699 25.5299 97.4099 25.7099 97.4099 25.8999C97.4099 26.0299 97.3999 26.1399 97.3799 26.2399C97.3599 26.3399 97.3399 26.4299 97.3299 26.5199L97.3199 26.5099Z" fill="#756770" stroke="#756770" stroke-width="0.2"/>
<path d="M103.85 25.67C103.78 25.93 103.8 26.1199 103.9 26.2399C104.01 26.3599 104.15 26.4099 104.33 26.4099C104.51 26.4099 104.68 26.3299 104.86 26.1799C105.04 26.0299 105.22 25.6999 105.39 25.2099L105.56 24.7399H105.79L105.54 25.4999C105.36 26.0199 105.14 26.3799 104.86 26.5699C104.58 26.7599 104.26 26.8599 103.89 26.8599C103.56 26.8599 103.31 26.7899 103.14 26.6499C102.97 26.5099 102.87 26.3099 102.83 26.0599C102.8 25.7999 102.83 25.5099 102.93 25.1799L104.79 18.7C104.98 18.7 105.17 18.6799 105.36 18.6499C105.55 18.6299 105.72 18.5899 105.87 18.5299L103.84 25.67H103.85ZM106.9 20.5199L106.86 20.7599H103.13L103.19 20.5199H106.9Z" fill="#756770" stroke="#756770" stroke-width="0.2"/>
<path d="M109.55 21.5399C109.72 21.0399 109.66 20.7999 109.38 20.7999C109.2 20.7999 109.03 20.8999 108.89 21.0999C108.75 21.2999 108.59 21.6099 108.43 22.0199L108.26 22.4599H108.03L108.34 21.5799C108.46 21.2399 108.6 20.9899 108.77 20.8099C108.94 20.6299 109.12 20.5099 109.3 20.4399C109.49 20.3699 109.66 20.3399 109.82 20.3399C110.08 20.3399 110.26 20.3899 110.38 20.4999C110.5 20.5999 110.57 20.7399 110.6 20.9099C110.62 21.0799 110.62 21.2599 110.58 21.4599C110.54 21.6599 110.49 21.8499 110.42 22.0299L109.14 25.67C109.06 25.9 109.03 26.0799 109.06 26.2199C109.09 26.3499 109.18 26.42 109.33 26.42C109.49 26.42 109.64 26.3299 109.79 26.1599C109.94 25.9899 110.09 25.66 110.27 25.2L110.44 24.7599H110.67L110.36 25.64C110.25 25.95 110.11 26.1999 109.95 26.3799C109.79 26.5599 109.62 26.6899 109.43 26.7599C109.25 26.8399 109.06 26.8699 108.88 26.8699C108.54 26.8699 108.3 26.7899 108.18 26.6299C108.06 26.4699 108.02 26.2599 108.05 26.0099C108.08 25.7499 108.15 25.4799 108.25 25.1899L109.53 21.5499L109.55 21.5399ZM109.92 18.3399C109.96 18.1299 110.07 17.9499 110.24 17.7999C110.41 17.6499 110.6 17.5699 110.8 17.5699C111 17.5699 111.17 17.6499 111.29 17.7999C111.41 17.9499 111.44 18.1299 111.4 18.3399C111.36 18.5499 111.25 18.7299 111.08 18.8799C110.91 19.0299 110.72 19.1099 110.51 19.1099C110.3 19.1099 110.15 19.0299 110.04 18.8799C109.92 18.7299 109.89 18.5499 109.93 18.3399H109.92Z" fill="#756770" stroke="#756770" stroke-width="0.2"/>
<path d="M113.73 25.67C113.67 25.9 113.65 26.0799 113.67 26.2199C113.69 26.3499 113.78 26.42 113.93 26.42C114.08 26.42 114.24 26.3299 114.38 26.1499C114.52 25.9699 114.67 25.65 114.83 25.2L114.99 24.7599H115.22L114.92 25.64C114.82 25.94 114.69 26.1899 114.54 26.3699C114.39 26.5499 114.23 26.6799 114.05 26.7599C113.87 26.8399 113.68 26.8799 113.47 26.8799C113.21 26.8799 113.01 26.8299 112.89 26.7299C112.77 26.6299 112.69 26.4999 112.66 26.3299C112.63 26.1599 112.64 25.9799 112.67 25.7799C112.71 25.5799 112.75 25.39 112.81 25.2L114.77 18.7099C114.85 18.4399 114.84 18.2399 114.75 18.1099C114.65 17.9799 114.41 17.92 114.02 17.92L114.1 17.67C114.54 17.67 114.93 17.6199 115.26 17.5299C115.6 17.4499 115.92 17.3299 116.23 17.1799L113.72 25.7L113.73 25.67Z" fill="#756770" stroke="#756770" stroke-width="0.2"/>
<path d="M117.29 24.9799C117.29 24.6299 117.34 24.2399 117.43 23.8299C117.52 23.4199 117.67 22.9999 117.86 22.5899C118.05 22.1799 118.29 21.8099 118.56 21.4699C118.84 21.1299 119.16 20.8599 119.53 20.6599C119.9 20.4599 120.31 20.3499 120.75 20.3499C121.25 20.3499 121.64 20.4999 121.94 20.8099C122.24 21.1199 122.39 21.5899 122.39 22.2299C122.39 22.5799 122.34 22.9699 122.25 23.3799C122.15 23.7999 122.01 24.2099 121.82 24.6199C121.63 25.0299 121.39 25.3999 121.12 25.7399C120.85 26.0799 120.52 26.3499 120.15 26.5499C119.78 26.7499 119.37 26.8599 118.93 26.8599C118.43 26.8599 118.04 26.7 117.74 26.39C117.44 26.08 117.29 25.6099 117.29 24.9699V24.9799ZM120.69 20.5999C120.43 20.5999 120.19 20.6999 119.95 20.9099C119.71 21.1099 119.5 21.3899 119.3 21.7399C119.1 22.0899 118.93 22.4799 118.78 22.9099C118.63 23.3399 118.52 23.7899 118.44 24.2499C118.36 24.7099 118.32 25.1599 118.32 25.5799C118.32 25.9399 118.38 26.1999 118.49 26.3699C118.61 26.5399 118.78 26.6199 119 26.6199C119.26 26.6199 119.5 26.5199 119.74 26.3099C119.98 26.1099 120.19 25.8299 120.39 25.4799C120.59 25.1299 120.76 24.7399 120.91 24.3099C121.06 23.8799 121.17 23.4299 121.25 22.9699C121.33 22.5099 121.37 22.0599 121.37 21.6299C121.37 21.2599 121.31 20.9999 121.2 20.8299C121.09 20.6699 120.92 20.5799 120.68 20.5799L120.69 20.5999Z" fill="#756770" stroke="#756770" stroke-width="0.2"/>
<path d="M9.21 11.35H8.34L7.43 8.79999H2.77L1.87 11.35H1L4.62 1.22H5.58L9.2 11.35H9.21ZM7.16 8.03L5.11 2.26001L3.06 8.03H7.17H7.16Z" fill="#756770" stroke="#756770" stroke-width="0.3"/>
<path d="M14.6799 11.35V1.22H15.4999L21.3699 9.92999V1.22H22.1799V11.35H21.3699L15.4999 2.64001V11.35H14.6799Z" fill="#756770" stroke="#756770" stroke-width="0.3"/>
<path d="M28.3701 11.35V1.22H29.1901L35.0601 9.92999V1.22H35.8701V11.35H35.0601L29.1901 2.64001V11.35H28.3701Z" fill="#756770" stroke="#756770" stroke-width="0.3"/>
<path d="M42.0601 11.35V1.22H48.3201V2.01001H42.8801V5.85999H47.4801V6.64999H42.8801V10.57H48.3201V11.36H42.0601V11.35Z" fill="#756770" stroke="#756770" stroke-width="0.3"/>
<path d="M60.7 6.28C60.7 3.18 62.28 1 65.31 1C67.67 1 69.14 2.31999 69.67 4.35999L68.83 4.56C68.39 2.86 67.21 1.79001 65.31 1.79001C62.83 1.79001 61.57 3.62999 61.57 6.26999C61.57 8.90999 62.82 10.75 65.31 10.75C67.22 10.75 68.4 9.67001 68.83 7.98001L69.67 8.17999C69.14 10.22 67.67 11.54 65.31 11.54C62.28 11.54 60.7 9.37001 60.7 6.26001V6.28Z" fill="#756770" stroke="#756770" stroke-width="0.3"/>
<path d="M82.6399 11.35H81.7699L80.8599 8.79999H76.1999L75.2999 11.35H74.4299L78.0499 1.22H79.0099L82.6299 11.35H82.6399ZM80.5899 8.03L78.5399 2.26001L76.4899 8.03H80.5999H80.5899Z" fill="#756770" stroke="#756770" stroke-width="0.3"/>
<path d="M91.7101 7.39999H88.9201V11.35H88.1101V1.22H91.7801C93.8101 1.22 95.0401 2.42 95.0401 4.31C95.0401 5.91 94.1401 7.02001 92.6301 7.32001L95.3001 11.35H94.3401L91.7201 7.39999H91.7101ZM88.9101 6.60001H91.7701C93.2701 6.60001 94.1801 5.72999 94.1801 4.29999C94.1801 2.86999 93.2701 2 91.7701 2H88.9101V6.60001Z" fill="#756770" stroke="#756770" stroke-width="0.3"/>
<path d="M104.66 7.39999H101.87V11.35H101.06V1.22H104.73C106.76 1.22 107.99 2.42 107.99 4.31C107.99 5.91 107.09 7.02001 105.58 7.32001L108.25 11.35H107.29L104.67 7.39999H104.66ZM101.87 6.60001H104.73C106.23 6.60001 107.14 5.72999 107.14 4.29999C107.14 2.86999 106.23 2 104.73 2H101.87V6.60001Z" fill="#756770" stroke="#756770" stroke-width="0.3"/>
<path d="M113.46 6.28C113.46 3.18 115.04 1 118.07 1C121.1 1 122.67 3.17 122.67 6.28C122.67 9.39 121.09 11.56 118.07 11.56C115.05 11.56 113.46 9.39 113.46 6.28ZM121.8 6.28C121.8 3.64 120.55 1.79999 118.06 1.79999C115.57 1.79999 114.34 3.64 114.32 6.28C114.3 8.92 115.57 10.76 118.06 10.76C120.55 10.76 121.8 8.92 121.8 6.28Z" fill="#756770" stroke="#756770" stroke-width="0.3"/>
<path d="M128.42 11.35V1.22H129.24V10.56H134.16V11.35H128.42Z" fill="#756770" stroke="#756770" stroke-width="0.3"/>
<path d="M139.72 11.35V1.22H140.54V10.56H145.46V11.35H139.72Z" fill="#756770" stroke="#756770" stroke-width="0.3"/>
</svg>
